# xmcd
#
# Track frame offsets:
#	150
#	17720
#	32203
#	51318
#	64248
#	76098
#	95270
#	108133
#	123770
#	140703
#	151830
#	166253
#	181063
#	190728
#
# Disc length: 2731 seconds
#
# Revision: 0
# Processed by: cddbd v1.5.1PL2 Copyright (c) Steve Scherf et al.
# Submitted via: dBpowerAMP V4.0
#
DISCID=a90aa90e
DTITLE=Jack Jersey - White Christmas
DYEAR=1900
DGENRE=Country
TTITLE0=Silent Night
TTITLE1=Merry Christmas Sweet Memory
TTITLE2=Gone Girl
TTITLE3=White Christmas
TTITLE4=Santa Claus
TTITLE5=This Christmas Lore
TTITLE6=After All The Years
TTITLE7=Trincomale
TTITLE8=Little Snowflakes
TTITLE9=Higher Than The Mountains
TTITLE10=How Many
TTITLE11=Gone
TTITLE12=Goodbye My Love
TTITLE13=Blue And Lonely Christmas
EXTD=
EXTT0=
EXTT1=
EXTT2=
EXTT3=
EXTT4=
EXTT5=
EXTT6=
EXTT7=
EXTT8=
EXTT9=
EXTT10=
EXTT11=
EXTT12=
EXTT13=
PLAYORDER=
